<mxfile host="65bd71144e">
    <diagram id="WFx__sE49T6voRkO5E54" name="Page-1">
        <mxGraphModel dx="1024" dy="422" grid="1" gridSize="10" guides="1" tooltips="1" connect="1" arrows="1" fold="1" page="1" pageScale="1" pageWidth="850" pageHeight="1100" math="0" shadow="0">
            <root>
                <mxCell id="0"/>
                <mxCell id="1" parent="0"/>
                <mxCell id="2" value="" style="shape=table;startSize=0;container=1;collapsible=0;childLayout=tableLayout;fillColor=#a20025;fontColor=#ffffff;strokeColor=#6F0000;" vertex="1" parent="1">
                    <mxGeometry y="40" width="430" height="320" as="geometry"/>
                </mxCell>
                <mxCell id="3" value="" style="shape=partialRectangle;collapsible=0;dropTarget=0;pointerEvents=0;fillColor=#a20025;top=0;left=0;bottom=0;right=0;points=[[0,0.5],[1,0.5]];portConstraint=eastwest;fontColor=#ffffff;strokeColor=#6F0000;" vertex="1" parent="2">
                    <mxGeometry width="430" height="46" as="geometry"/>
                </mxCell>
                <mxCell id="4" value="GET" style="shape=partialRectangle;html=1;whiteSpace=wrap;connectable=0;overflow=hidden;fillColor=#a20025;top=0;left=0;bottom=0;right=0;pointerEvents=1;fontColor=#ffffff;strokeColor=#6F0000;" vertex="1" parent="3">
                    <mxGeometry width="109" height="46" as="geometry">
                        <mxRectangle width="109" height="46" as="alternateBounds"/>
                    </mxGeometry>
                </mxCell>
                <mxCell id="5" value="/comments" style="shape=partialRectangle;html=1;whiteSpace=wrap;connectable=0;overflow=hidden;fillColor=#a20025;top=0;left=0;bottom=0;right=0;pointerEvents=1;fontColor=#ffffff;strokeColor=#6F0000;" vertex="1" parent="3">
                    <mxGeometry x="109" width="106" height="46" as="geometry">
                        <mxRectangle width="106" height="46" as="alternateBounds"/>
                    </mxGeometry>
                </mxCell>
                <mxCell id="6" value="Index (Read)" style="shape=partialRectangle;html=1;whiteSpace=wrap;connectable=0;overflow=hidden;fillColor=#a20025;top=0;left=0;bottom=0;right=0;pointerEvents=1;fontColor=#ffffff;strokeColor=#6F0000;" vertex="1" parent="3">
                    <mxGeometry x="215" width="109" height="46" as="geometry">
                        <mxRectangle width="109" height="46" as="alternateBounds"/>
                    </mxGeometry>
                </mxCell>
                <mxCell id="7" value="List all comments" style="shape=partialRectangle;html=1;whiteSpace=wrap;connectable=0;overflow=hidden;fillColor=#a20025;top=0;left=0;bottom=0;right=0;pointerEvents=1;fontColor=#ffffff;strokeColor=#6F0000;" vertex="1" parent="3">
                    <mxGeometry x="324" width="106" height="46" as="geometry">
                        <mxRectangle width="106" height="46" as="alternateBounds"/>
                    </mxGeometry>
                </mxCell>
                <mxCell id="8" value="" style="shape=partialRectangle;collapsible=0;dropTarget=0;pointerEvents=0;fillColor=#a20025;top=0;left=0;bottom=0;right=0;points=[[0,0.5],[1,0.5]];portConstraint=eastwest;fontColor=#ffffff;strokeColor=#6F0000;" vertex="1" parent="2">
                    <mxGeometry y="46" width="430" height="45" as="geometry"/>
                </mxCell>
                <mxCell id="9" value="GET" style="shape=partialRectangle;html=1;whiteSpace=wrap;connectable=0;overflow=hidden;fillColor=#a20025;top=0;left=0;bottom=0;right=0;pointerEvents=1;fontColor=#ffffff;strokeColor=#6F0000;" vertex="1" parent="8">
                    <mxGeometry width="109" height="45" as="geometry">
                        <mxRectangle width="109" height="45" as="alternateBounds"/>
                    </mxGeometry>
                </mxCell>
                <mxCell id="10" value="/comments/new" style="shape=partialRectangle;html=1;whiteSpace=wrap;connectable=0;overflow=hidden;fillColor=#a20025;top=0;left=0;bottom=0;right=0;pointerEvents=1;fontColor=#ffffff;strokeColor=#6F0000;" vertex="1" parent="8">
                    <mxGeometry x="109" width="106" height="45" as="geometry">
                        <mxRectangle width="106" height="45" as="alternateBounds"/>
                    </mxGeometry>
                </mxCell>
                <mxCell id="11" value="New (Read)" style="shape=partialRectangle;html=1;whiteSpace=wrap;connectable=0;overflow=hidden;fillColor=#a20025;top=0;left=0;bottom=0;right=0;pointerEvents=1;fontColor=#ffffff;strokeColor=#6F0000;" vertex="1" parent="8">
                    <mxGeometry x="215" width="109" height="45" as="geometry">
                        <mxRectangle width="109" height="45" as="alternateBounds"/>
                    </mxGeometry>
                </mxCell>
                <mxCell id="12" value="Show new comment form" style="shape=partialRectangle;html=1;whiteSpace=wrap;connectable=0;overflow=hidden;fillColor=#a20025;top=0;left=0;bottom=0;right=0;pointerEvents=1;fontColor=#ffffff;strokeColor=#6F0000;" vertex="1" parent="8">
                    <mxGeometry x="324" width="106" height="45" as="geometry">
                        <mxRectangle width="106" height="45" as="alternateBounds"/>
                    </mxGeometry>
                </mxCell>
                <mxCell id="13" value="" style="shape=partialRectangle;collapsible=0;dropTarget=0;pointerEvents=0;fillColor=#a20025;top=0;left=0;bottom=0;right=0;points=[[0,0.5],[1,0.5]];portConstraint=eastwest;fontColor=#ffffff;strokeColor=#6F0000;" vertex="1" parent="2">
                    <mxGeometry y="91" width="430" height="46" as="geometry"/>
                </mxCell>
                <mxCell id="14" value="POST" style="shape=partialRectangle;html=1;whiteSpace=wrap;connectable=0;overflow=hidden;fillColor=#a20025;top=0;left=0;bottom=0;right=0;pointerEvents=1;fontColor=#ffffff;strokeColor=#6F0000;" vertex="1" parent="13">
                    <mxGeometry width="109" height="46" as="geometry">
                        <mxRectangle width="109" height="46" as="alternateBounds"/>
                    </mxGeometry>
                </mxCell>
                <mxCell id="15" value="" style="shape=partialRectangle;html=1;whiteSpace=wrap;connectable=0;overflow=hidden;fillColor=#a20025;top=0;left=0;bottom=0;right=0;pointerEvents=1;fontColor=#ffffff;strokeColor=#6F0000;" vertex="1" parent="13">
                    <mxGeometry x="109" width="106" height="46" as="geometry">
                        <mxRectangle width="106" height="46" as="alternateBounds"/>
                    </mxGeometry>
                </mxCell>
                <mxCell id="16" value="Create (Create)" style="shape=partialRectangle;html=1;whiteSpace=wrap;connectable=0;overflow=hidden;fillColor=#a20025;top=0;left=0;bottom=0;right=0;pointerEvents=1;fontColor=#ffffff;strokeColor=#6F0000;" vertex="1" parent="13">
                    <mxGeometry x="215" width="109" height="46" as="geometry">
                        <mxRectangle width="109" height="46" as="alternateBounds"/>
                    </mxGeometry>
                </mxCell>
                <mxCell id="17" value="Create new comment for user" style="shape=partialRectangle;html=1;whiteSpace=wrap;connectable=0;overflow=hidden;fillColor=#a20025;top=0;left=0;bottom=0;right=0;pointerEvents=1;fontColor=#ffffff;strokeColor=#6F0000;" vertex="1" parent="13">
                    <mxGeometry x="324" width="106" height="46" as="geometry">
                        <mxRectangle width="106" height="46" as="alternateBounds"/>
                    </mxGeometry>
                </mxCell>
                <mxCell id="18" value="" style="shape=partialRectangle;collapsible=0;dropTarget=0;pointerEvents=0;fillColor=#a20025;top=0;left=0;bottom=0;right=0;points=[[0,0.5],[1,0.5]];portConstraint=eastwest;fontColor=#ffffff;strokeColor=#6F0000;" vertex="1" parent="2">
                    <mxGeometry y="137" width="430" height="46" as="geometry"/>
                </mxCell>
                <mxCell id="19" value="GET" style="shape=partialRectangle;html=1;whiteSpace=wrap;connectable=0;overflow=hidden;fillColor=#a20025;top=0;left=0;bottom=0;right=0;pointerEvents=1;fontColor=#ffffff;strokeColor=#6F0000;" vertex="1" parent="18">
                    <mxGeometry width="109" height="46" as="geometry">
                        <mxRectangle width="109" height="46" as="alternateBounds"/>
                    </mxGeometry>
                </mxCell>
                <mxCell id="20" value="/comments/:id" style="shape=partialRectangle;html=1;whiteSpace=wrap;connectable=0;overflow=hidden;fillColor=#a20025;top=0;left=0;bottom=0;right=0;pointerEvents=1;fontColor=#ffffff;strokeColor=#6F0000;" vertex="1" parent="18">
                    <mxGeometry x="109" width="106" height="46" as="geometry">
                        <mxRectangle width="106" height="46" as="alternateBounds"/>
                    </mxGeometry>
                </mxCell>
                <mxCell id="21" value="Show (Read)" style="shape=partialRectangle;html=1;whiteSpace=wrap;connectable=0;overflow=hidden;fillColor=#a20025;top=0;left=0;bottom=0;right=0;pointerEvents=1;fontColor=#ffffff;strokeColor=#6F0000;" vertex="1" parent="18">
                    <mxGeometry x="215" width="109" height="46" as="geometry">
                        <mxRectangle width="109" height="46" as="alternateBounds"/>
                    </mxGeometry>
                </mxCell>
                <mxCell id="22" value="Read specific comment" style="shape=partialRectangle;html=1;whiteSpace=wrap;connectable=0;overflow=hidden;fillColor=#a20025;top=0;left=0;bottom=0;right=0;pointerEvents=1;fontColor=#ffffff;strokeColor=#6F0000;" vertex="1" parent="18">
                    <mxGeometry x="324" width="106" height="46" as="geometry">
                        <mxRectangle width="106" height="46" as="alternateBounds"/>
                    </mxGeometry>
                </mxCell>
                <mxCell id="23" value="" style="shape=partialRectangle;collapsible=0;dropTarget=0;pointerEvents=0;fillColor=#a20025;top=0;left=0;bottom=0;right=0;points=[[0,0.5],[1,0.5]];portConstraint=eastwest;fontColor=#ffffff;strokeColor=#6F0000;" vertex="1" parent="2">
                    <mxGeometry y="183" width="430" height="46" as="geometry"/>
                </mxCell>
                <mxCell id="24" value="GET" style="shape=partialRectangle;html=1;whiteSpace=wrap;connectable=0;overflow=hidden;fillColor=#a20025;top=0;left=0;bottom=0;right=0;pointerEvents=1;fontColor=#ffffff;strokeColor=#6F0000;" vertex="1" parent="23">
                    <mxGeometry width="109" height="46" as="geometry">
                        <mxRectangle width="109" height="46" as="alternateBounds"/>
                    </mxGeometry>
                </mxCell>
                <mxCell id="25" value="/comments/edit/:id" style="shape=partialRectangle;html=1;whiteSpace=wrap;connectable=0;overflow=hidden;fillColor=#a20025;top=0;left=0;bottom=0;right=0;pointerEvents=1;fontColor=#ffffff;strokeColor=#6F0000;" vertex="1" parent="23">
                    <mxGeometry x="109" width="106" height="46" as="geometry">
                        <mxRectangle width="106" height="46" as="alternateBounds"/>
                    </mxGeometry>
                </mxCell>
                <mxCell id="26" value="Edit (Read)" style="shape=partialRectangle;html=1;whiteSpace=wrap;connectable=0;overflow=hidden;fillColor=#a20025;top=0;left=0;bottom=0;right=0;pointerEvents=1;fontColor=#ffffff;strokeColor=#6F0000;" vertex="1" parent="23">
                    <mxGeometry x="215" width="109" height="46" as="geometry">
                        <mxRectangle width="109" height="46" as="alternateBounds"/>
                    </mxGeometry>
                </mxCell>
                <mxCell id="27" value="Show form for editing comment" style="shape=partialRectangle;html=1;whiteSpace=wrap;connectable=0;overflow=hidden;fillColor=#a20025;top=0;left=0;bottom=0;right=0;pointerEvents=1;fontColor=#ffffff;strokeColor=#6F0000;" vertex="1" parent="23">
                    <mxGeometry x="324" width="106" height="46" as="geometry">
                        <mxRectangle width="106" height="46" as="alternateBounds"/>
                    </mxGeometry>
                </mxCell>
                <mxCell id="28" value="" style="shape=partialRectangle;collapsible=0;dropTarget=0;pointerEvents=0;fillColor=#a20025;top=0;left=0;bottom=0;right=0;points=[[0,0.5],[1,0.5]];portConstraint=eastwest;fontColor=#ffffff;strokeColor=#6F0000;" vertex="1" parent="2">
                    <mxGeometry y="229" width="430" height="45" as="geometry"/>
                </mxCell>
                <mxCell id="29" value="PUT" style="shape=partialRectangle;html=1;whiteSpace=wrap;connectable=0;overflow=hidden;fillColor=#a20025;top=0;left=0;bottom=0;right=0;pointerEvents=1;fontColor=#ffffff;strokeColor=#6F0000;" vertex="1" parent="28">
                    <mxGeometry width="109" height="45" as="geometry">
                        <mxRectangle width="109" height="45" as="alternateBounds"/>
                    </mxGeometry>
                </mxCell>
                <mxCell id="30" value="/comments:id" style="shape=partialRectangle;html=1;whiteSpace=wrap;connectable=0;overflow=hidden;fillColor=#a20025;top=0;left=0;bottom=0;right=0;pointerEvents=1;fontColor=#ffffff;strokeColor=#6F0000;" vertex="1" parent="28">
                    <mxGeometry x="109" width="106" height="45" as="geometry">
                        <mxRectangle width="106" height="45" as="alternateBounds"/>
                    </mxGeometry>
                </mxCell>
                <mxCell id="31" value="Update (Update)" style="shape=partialRectangle;html=1;whiteSpace=wrap;connectable=0;overflow=hidden;fillColor=#a20025;top=0;left=0;bottom=0;right=0;pointerEvents=1;fontColor=#ffffff;strokeColor=#6F0000;" vertex="1" parent="28">
                    <mxGeometry x="215" width="109" height="45" as="geometry">
                        <mxRectangle width="109" height="45" as="alternateBounds"/>
                    </mxGeometry>
                </mxCell>
                <mxCell id="32" value="Updates user comment" style="shape=partialRectangle;html=1;whiteSpace=wrap;connectable=0;overflow=hidden;fillColor=#a20025;top=0;left=0;bottom=0;right=0;pointerEvents=1;fontColor=#ffffff;strokeColor=#6F0000;" vertex="1" parent="28">
                    <mxGeometry x="324" width="106" height="45" as="geometry">
                        <mxRectangle width="106" height="45" as="alternateBounds"/>
                    </mxGeometry>
                </mxCell>
                <mxCell id="33" value="" style="shape=partialRectangle;collapsible=0;dropTarget=0;pointerEvents=0;fillColor=#a20025;top=0;left=0;bottom=0;right=0;points=[[0,0.5],[1,0.5]];portConstraint=eastwest;fontColor=#ffffff;strokeColor=#6F0000;" vertex="1" parent="2">
                    <mxGeometry y="274" width="430" height="46" as="geometry"/>
                </mxCell>
                <mxCell id="34" value="DELETE" style="shape=partialRectangle;html=1;whiteSpace=wrap;connectable=0;overflow=hidden;fillColor=#a20025;top=0;left=0;bottom=0;right=0;pointerEvents=1;fontColor=#ffffff;strokeColor=#6F0000;" vertex="1" parent="33">
                    <mxGeometry width="109" height="46" as="geometry">
                        <mxRectangle width="109" height="46" as="alternateBounds"/>
                    </mxGeometry>
                </mxCell>
                <mxCell id="35" value="/comments/:id" style="shape=partialRectangle;html=1;whiteSpace=wrap;connectable=0;overflow=hidden;fillColor=#a20025;top=0;left=0;bottom=0;right=0;pointerEvents=1;fontColor=#ffffff;strokeColor=#6F0000;" vertex="1" parent="33">
                    <mxGeometry x="109" width="106" height="46" as="geometry">
                        <mxRectangle width="106" height="46" as="alternateBounds"/>
                    </mxGeometry>
                </mxCell>
                <mxCell id="36" value="Destroy (Delete)" style="shape=partialRectangle;html=1;whiteSpace=wrap;connectable=0;overflow=hidden;fillColor=#a20025;top=0;left=0;bottom=0;right=0;pointerEvents=1;fontColor=#ffffff;strokeColor=#6F0000;" vertex="1" parent="33">
                    <mxGeometry x="215" width="109" height="46" as="geometry">
                        <mxRectangle width="109" height="46" as="alternateBounds"/>
                    </mxGeometry>
                </mxCell>
                <mxCell id="37" value="Delete's user comment" style="shape=partialRectangle;html=1;whiteSpace=wrap;connectable=0;overflow=hidden;fillColor=#a20025;top=0;left=0;bottom=0;right=0;pointerEvents=1;fontColor=#ffffff;strokeColor=#6F0000;" vertex="1" parent="33">
                    <mxGeometry x="324" width="106" height="46" as="geometry">
                        <mxRectangle width="106" height="46" as="alternateBounds"/>
                    </mxGeometry>
                </mxCell>
                <mxCell id="38" value="" style="shape=table;startSize=0;container=1;collapsible=0;childLayout=tableLayout;fillColor=#a20025;fontColor=#ffffff;strokeColor=#6F0000;" vertex="1" parent="1">
                    <mxGeometry x="450" y="40" width="430" height="320" as="geometry"/>
                </mxCell>
                <mxCell id="39" value="" style="shape=partialRectangle;collapsible=0;dropTarget=0;pointerEvents=0;fillColor=#a20025;top=0;left=0;bottom=0;right=0;points=[[0,0.5],[1,0.5]];portConstraint=eastwest;fontColor=#ffffff;strokeColor=#6F0000;" vertex="1" parent="38">
                    <mxGeometry width="430" height="46" as="geometry"/>
                </mxCell>
                <mxCell id="40" value="GET" style="shape=partialRectangle;html=1;whiteSpace=wrap;connectable=0;overflow=hidden;fillColor=#a20025;top=0;left=0;bottom=0;right=0;pointerEvents=1;fontColor=#ffffff;strokeColor=#6F0000;" vertex="1" parent="39">
                    <mxGeometry width="109" height="46" as="geometry">
                        <mxRectangle width="109" height="46" as="alternateBounds"/>
                    </mxGeometry>
                </mxCell>
                <mxCell id="41" value="/threads" style="shape=partialRectangle;html=1;whiteSpace=wrap;connectable=0;overflow=hidden;fillColor=#a20025;top=0;left=0;bottom=0;right=0;pointerEvents=1;fontColor=#ffffff;strokeColor=#6F0000;" vertex="1" parent="39">
                    <mxGeometry x="109" width="106" height="46" as="geometry">
                        <mxRectangle width="106" height="46" as="alternateBounds"/>
                    </mxGeometry>
                </mxCell>
                <mxCell id="42" value="Index (Read)" style="shape=partialRectangle;html=1;whiteSpace=wrap;connectable=0;overflow=hidden;fillColor=#a20025;top=0;left=0;bottom=0;right=0;pointerEvents=1;fontColor=#ffffff;strokeColor=#6F0000;" vertex="1" parent="39">
                    <mxGeometry x="215" width="109" height="46" as="geometry">
                        <mxRectangle width="109" height="46" as="alternateBounds"/>
                    </mxGeometry>
                </mxCell>
                <mxCell id="43" value="List all threads" style="shape=partialRectangle;html=1;whiteSpace=wrap;connectable=0;overflow=hidden;fillColor=#a20025;top=0;left=0;bottom=0;right=0;pointerEvents=1;fontColor=#ffffff;strokeColor=#6F0000;" vertex="1" parent="39">
                    <mxGeometry x="324" width="106" height="46" as="geometry">
                        <mxRectangle width="106" height="46" as="alternateBounds"/>
                    </mxGeometry>
                </mxCell>
                <mxCell id="44" value="" style="shape=partialRectangle;collapsible=0;dropTarget=0;pointerEvents=0;fillColor=#a20025;top=0;left=0;bottom=0;right=0;points=[[0,0.5],[1,0.5]];portConstraint=eastwest;fontColor=#ffffff;strokeColor=#6F0000;" vertex="1" parent="38">
                    <mxGeometry y="46" width="430" height="45" as="geometry"/>
                </mxCell>
                <mxCell id="45" value="GET" style="shape=partialRectangle;html=1;whiteSpace=wrap;connectable=0;overflow=hidden;fillColor=#a20025;top=0;left=0;bottom=0;right=0;pointerEvents=1;fontColor=#ffffff;strokeColor=#6F0000;" vertex="1" parent="44">
                    <mxGeometry width="109" height="45" as="geometry">
                        <mxRectangle width="109" height="45" as="alternateBounds"/>
                    </mxGeometry>
                </mxCell>
                <mxCell id="46" value="/threads/new" style="shape=partialRectangle;html=1;whiteSpace=wrap;connectable=0;overflow=hidden;fillColor=#a20025;top=0;left=0;bottom=0;right=0;pointerEvents=1;fontColor=#ffffff;strokeColor=#6F0000;" vertex="1" parent="44">
                    <mxGeometry x="109" width="106" height="45" as="geometry">
                        <mxRectangle width="106" height="45" as="alternateBounds"/>
                    </mxGeometry>
                </mxCell>
                <mxCell id="47" value="New (Read)" style="shape=partialRectangle;html=1;whiteSpace=wrap;connectable=0;overflow=hidden;fillColor=#a20025;top=0;left=0;bottom=0;right=0;pointerEvents=1;fontColor=#ffffff;strokeColor=#6F0000;" vertex="1" parent="44">
                    <mxGeometry x="215" width="109" height="45" as="geometry">
                        <mxRectangle width="109" height="45" as="alternateBounds"/>
                    </mxGeometry>
                </mxCell>
                <mxCell id="48" value="Show new thread form" style="shape=partialRectangle;html=1;whiteSpace=wrap;connectable=0;overflow=hidden;fillColor=#a20025;top=0;left=0;bottom=0;right=0;pointerEvents=1;fontColor=#ffffff;strokeColor=#6F0000;" vertex="1" parent="44">
                    <mxGeometry x="324" width="106" height="45" as="geometry">
                        <mxRectangle width="106" height="45" as="alternateBounds"/>
                    </mxGeometry>
                </mxCell>
                <mxCell id="49" value="" style="shape=partialRectangle;collapsible=0;dropTarget=0;pointerEvents=0;fillColor=#a20025;top=0;left=0;bottom=0;right=0;points=[[0,0.5],[1,0.5]];portConstraint=eastwest;fontColor=#ffffff;strokeColor=#6F0000;" vertex="1" parent="38">
                    <mxGeometry y="91" width="430" height="46" as="geometry"/>
                </mxCell>
                <mxCell id="50" value="POST" style="shape=partialRectangle;html=1;whiteSpace=wrap;connectable=0;overflow=hidden;fillColor=#a20025;top=0;left=0;bottom=0;right=0;pointerEvents=1;fontColor=#ffffff;strokeColor=#6F0000;" vertex="1" parent="49">
                    <mxGeometry width="109" height="46" as="geometry">
                        <mxRectangle width="109" height="46" as="alternateBounds"/>
                    </mxGeometry>
                </mxCell>
                <mxCell id="51" value="/threads" style="shape=partialRectangle;html=1;whiteSpace=wrap;connectable=0;overflow=hidden;fillColor=#a20025;top=0;left=0;bottom=0;right=0;pointerEvents=1;fontColor=#ffffff;strokeColor=#6F0000;" vertex="1" parent="49">
                    <mxGeometry x="109" width="106" height="46" as="geometry">
                        <mxRectangle width="106" height="46" as="alternateBounds"/>
                    </mxGeometry>
                </mxCell>
                <mxCell id="52" value="Create (Create)" style="shape=partialRectangle;html=1;whiteSpace=wrap;connectable=0;overflow=hidden;fillColor=#a20025;top=0;left=0;bottom=0;right=0;pointerEvents=1;fontColor=#ffffff;strokeColor=#6F0000;" vertex="1" parent="49">
                    <mxGeometry x="215" width="109" height="46" as="geometry">
                        <mxRectangle width="109" height="46" as="alternateBounds"/>
                    </mxGeometry>
                </mxCell>
                <mxCell id="53" value="Create new thread for user" style="shape=partialRectangle;html=1;whiteSpace=wrap;connectable=0;overflow=hidden;fillColor=#a20025;top=0;left=0;bottom=0;right=0;pointerEvents=1;fontColor=#ffffff;strokeColor=#6F0000;" vertex="1" parent="49">
                    <mxGeometry x="324" width="106" height="46" as="geometry">
                        <mxRectangle width="106" height="46" as="alternateBounds"/>
                    </mxGeometry>
                </mxCell>
                <mxCell id="54" value="" style="shape=partialRectangle;collapsible=0;dropTarget=0;pointerEvents=0;fillColor=#a20025;top=0;left=0;bottom=0;right=0;points=[[0,0.5],[1,0.5]];portConstraint=eastwest;fontColor=#ffffff;strokeColor=#6F0000;" vertex="1" parent="38">
                    <mxGeometry y="137" width="430" height="46" as="geometry"/>
                </mxCell>
                <mxCell id="55" value="GET" style="shape=partialRectangle;html=1;whiteSpace=wrap;connectable=0;overflow=hidden;fillColor=#a20025;top=0;left=0;bottom=0;right=0;pointerEvents=1;fontColor=#ffffff;strokeColor=#6F0000;" vertex="1" parent="54">
                    <mxGeometry width="109" height="46" as="geometry">
                        <mxRectangle width="109" height="46" as="alternateBounds"/>
                    </mxGeometry>
                </mxCell>
                <mxCell id="56" value="/threads/:id" style="shape=partialRectangle;html=1;whiteSpace=wrap;connectable=0;overflow=hidden;fillColor=#a20025;top=0;left=0;bottom=0;right=0;pointerEvents=1;fontColor=#ffffff;strokeColor=#6F0000;" vertex="1" parent="54">
                    <mxGeometry x="109" width="106" height="46" as="geometry">
                        <mxRectangle width="106" height="46" as="alternateBounds"/>
                    </mxGeometry>
                </mxCell>
                <mxCell id="57" value="Show (Read)" style="shape=partialRectangle;html=1;whiteSpace=wrap;connectable=0;overflow=hidden;fillColor=#a20025;top=0;left=0;bottom=0;right=0;pointerEvents=1;fontColor=#ffffff;strokeColor=#6F0000;" vertex="1" parent="54">
                    <mxGeometry x="215" width="109" height="46" as="geometry">
                        <mxRectangle width="109" height="46" as="alternateBounds"/>
                    </mxGeometry>
                </mxCell>
                <mxCell id="58" value="Read specific thread" style="shape=partialRectangle;html=1;whiteSpace=wrap;connectable=0;overflow=hidden;fillColor=#a20025;top=0;left=0;bottom=0;right=0;pointerEvents=1;fontColor=#ffffff;strokeColor=#6F0000;" vertex="1" parent="54">
                    <mxGeometry x="324" width="106" height="46" as="geometry">
                        <mxRectangle width="106" height="46" as="alternateBounds"/>
                    </mxGeometry>
                </mxCell>
                <mxCell id="59" value="" style="shape=partialRectangle;collapsible=0;dropTarget=0;pointerEvents=0;fillColor=#a20025;top=0;left=0;bottom=0;right=0;points=[[0,0.5],[1,0.5]];portConstraint=eastwest;fontColor=#ffffff;strokeColor=#6F0000;" vertex="1" parent="38">
                    <mxGeometry y="183" width="430" height="46" as="geometry"/>
                </mxCell>
                <mxCell id="60" value="GET" style="shape=partialRectangle;html=1;whiteSpace=wrap;connectable=0;overflow=hidden;fillColor=#a20025;top=0;left=0;bottom=0;right=0;pointerEvents=1;fontColor=#ffffff;strokeColor=#6F0000;" vertex="1" parent="59">
                    <mxGeometry width="109" height="46" as="geometry">
                        <mxRectangle width="109" height="46" as="alternateBounds"/>
                    </mxGeometry>
                </mxCell>
                <mxCell id="61" value="/threads/edit/:id" style="shape=partialRectangle;html=1;whiteSpace=wrap;connectable=0;overflow=hidden;fillColor=#a20025;top=0;left=0;bottom=0;right=0;pointerEvents=1;fontColor=#ffffff;strokeColor=#6F0000;" vertex="1" parent="59">
                    <mxGeometry x="109" width="106" height="46" as="geometry">
                        <mxRectangle width="106" height="46" as="alternateBounds"/>
                    </mxGeometry>
                </mxCell>
                <mxCell id="62" value="Edit (Read)" style="shape=partialRectangle;html=1;whiteSpace=wrap;connectable=0;overflow=hidden;fillColor=#a20025;top=0;left=0;bottom=0;right=0;pointerEvents=1;fontColor=#ffffff;strokeColor=#6F0000;" vertex="1" parent="59">
                    <mxGeometry x="215" width="109" height="46" as="geometry">
                        <mxRectangle width="109" height="46" as="alternateBounds"/>
                    </mxGeometry>
                </mxCell>
                <mxCell id="63" value="Show form for editing thread" style="shape=partialRectangle;html=1;whiteSpace=wrap;connectable=0;overflow=hidden;fillColor=#a20025;top=0;left=0;bottom=0;right=0;pointerEvents=1;fontColor=#ffffff;strokeColor=#6F0000;" vertex="1" parent="59">
                    <mxGeometry x="324" width="106" height="46" as="geometry">
                        <mxRectangle width="106" height="46" as="alternateBounds"/>
                    </mxGeometry>
                </mxCell>
                <mxCell id="64" value="" style="shape=partialRectangle;collapsible=0;dropTarget=0;pointerEvents=0;fillColor=#a20025;top=0;left=0;bottom=0;right=0;points=[[0,0.5],[1,0.5]];portConstraint=eastwest;fontColor=#ffffff;strokeColor=#6F0000;" vertex="1" parent="38">
                    <mxGeometry y="229" width="430" height="45" as="geometry"/>
                </mxCell>
                <mxCell id="65" value="PUT" style="shape=partialRectangle;html=1;whiteSpace=wrap;connectable=0;overflow=hidden;fillColor=#a20025;top=0;left=0;bottom=0;right=0;pointerEvents=1;fontColor=#ffffff;strokeColor=#6F0000;" vertex="1" parent="64">
                    <mxGeometry width="109" height="45" as="geometry">
                        <mxRectangle width="109" height="45" as="alternateBounds"/>
                    </mxGeometry>
                </mxCell>
                <mxCell id="66" value="/threads:id" style="shape=partialRectangle;html=1;whiteSpace=wrap;connectable=0;overflow=hidden;fillColor=#a20025;top=0;left=0;bottom=0;right=0;pointerEvents=1;fontColor=#ffffff;strokeColor=#6F0000;" vertex="1" parent="64">
                    <mxGeometry x="109" width="106" height="45" as="geometry">
                        <mxRectangle width="106" height="45" as="alternateBounds"/>
                    </mxGeometry>
                </mxCell>
                <mxCell id="67" value="Update (Update)" style="shape=partialRectangle;html=1;whiteSpace=wrap;connectable=0;overflow=hidden;fillColor=#a20025;top=0;left=0;bottom=0;right=0;pointerEvents=1;fontColor=#ffffff;strokeColor=#6F0000;" vertex="1" parent="64">
                    <mxGeometry x="215" width="109" height="45" as="geometry">
                        <mxRectangle width="109" height="45" as="alternateBounds"/>
                    </mxGeometry>
                </mxCell>
                <mxCell id="68" value="Updates user thread" style="shape=partialRectangle;html=1;whiteSpace=wrap;connectable=0;overflow=hidden;fillColor=#a20025;top=0;left=0;bottom=0;right=0;pointerEvents=1;fontColor=#ffffff;strokeColor=#6F0000;" vertex="1" parent="64">
                    <mxGeometry x="324" width="106" height="45" as="geometry">
                        <mxRectangle width="106" height="45" as="alternateBounds"/>
                    </mxGeometry>
                </mxCell>
                <mxCell id="69" value="" style="shape=partialRectangle;collapsible=0;dropTarget=0;pointerEvents=0;fillColor=#a20025;top=0;left=0;bottom=0;right=0;points=[[0,0.5],[1,0.5]];portConstraint=eastwest;fontColor=#ffffff;strokeColor=#6F0000;" vertex="1" parent="38">
                    <mxGeometry y="274" width="430" height="46" as="geometry"/>
                </mxCell>
                <mxCell id="70" value="DELETE" style="shape=partialRectangle;html=1;whiteSpace=wrap;connectable=0;overflow=hidden;fillColor=#a20025;top=0;left=0;bottom=0;right=0;pointerEvents=1;fontColor=#ffffff;strokeColor=#6F0000;" vertex="1" parent="69">
                    <mxGeometry width="109" height="46" as="geometry">
                        <mxRectangle width="109" height="46" as="alternateBounds"/>
                    </mxGeometry>
                </mxCell>
                <mxCell id="71" value="/threads/:id" style="shape=partialRectangle;html=1;whiteSpace=wrap;connectable=0;overflow=hidden;fillColor=#a20025;top=0;left=0;bottom=0;right=0;pointerEvents=1;fontColor=#ffffff;strokeColor=#6F0000;" vertex="1" parent="69">
                    <mxGeometry x="109" width="106" height="46" as="geometry">
                        <mxRectangle width="106" height="46" as="alternateBounds"/>
                    </mxGeometry>
                </mxCell>
                <mxCell id="72" value="Destroy (Delete)" style="shape=partialRectangle;html=1;whiteSpace=wrap;connectable=0;overflow=hidden;fillColor=#a20025;top=0;left=0;bottom=0;right=0;pointerEvents=1;fontColor=#ffffff;strokeColor=#6F0000;" vertex="1" parent="69">
                    <mxGeometry x="215" width="109" height="46" as="geometry">
                        <mxRectangle width="109" height="46" as="alternateBounds"/>
                    </mxGeometry>
                </mxCell>
                <mxCell id="73" value="Delete's user thread" style="shape=partialRectangle;html=1;whiteSpace=wrap;connectable=0;overflow=hidden;fillColor=#a20025;top=0;left=0;bottom=0;right=0;pointerEvents=1;fontColor=#ffffff;strokeColor=#6F0000;" vertex="1" parent="69">
                    <mxGeometry x="324" width="106" height="46" as="geometry">
                        <mxRectangle width="106" height="46" as="alternateBounds"/>
                    </mxGeometry>
                </mxCell>
                <mxCell id="74" value="/comments" style="shape=partialRectangle;html=1;whiteSpace=wrap;connectable=0;overflow=hidden;fillColor=#a20025;top=0;left=0;bottom=0;right=0;pointerEvents=1;fontColor=#ffffff;strokeColor=#6F0000;" vertex="1" parent="1">
                    <mxGeometry x="110" y="130" width="106" height="46" as="geometry">
                        <mxRectangle width="106" height="46" as="alternateBounds"/>
                    </mxGeometry>
                </mxCell>
                <mxCell id="75" value="Comments" style="text;html=1;strokeColor=#6F0000;fillColor=#a20025;align=center;verticalAlign=middle;whiteSpace=wrap;rounded=0;fontSize=21;fontColor=#ffffff;" vertex="1" parent="1">
                    <mxGeometry x="110" y="10" width="210" height="30" as="geometry"/>
                </mxCell>
                <mxCell id="78" value="Threads" style="text;html=1;strokeColor=#6F0000;fillColor=#a20025;align=center;verticalAlign=middle;whiteSpace=wrap;rounded=0;fontSize=21;fontColor=#ffffff;" vertex="1" parent="1">
                    <mxGeometry x="560" y="10" width="210" height="30" as="geometry"/>
                </mxCell>
            </root>
        </mxGraphModel>
    </diagram>
</mxfile>